<svg xmlns="http://www.w3.org/2000/svg" width="52" height="73" viewBox="0 0 52 73" fill="none"><g clip-path="url(#clip0_37_26)"><path d="M24.8802 0.857822C24.7111 0.886239 24.2656 0.937388 23.8935 0.971488C20.7471 1.27839 17.5613 2.4321 14.8999 4.22802C10.2875 7.33678 7.13556 12.2074 6.21646 17.6406C5.94581 19.249 5.93453 19.6354 5.93453 26.2281C5.93453 30.9793 5.91762 32.4513 5.86687 32.5024C5.81612 32.5536 5.16768 32.5706 3.30131 32.5706H0.803406V52.6838C0.803406 70.9727 0.809044 72.797 0.893623 72.8311C0.944371 72.8482 12.1934 72.8652 25.9008 72.8652H50.8178V52.7179V32.5706L48.4383 32.5593L46.0532 32.5422L46.0194 25.978C45.9912 19.6752 45.9799 19.3797 45.8671 18.5613C45.3427 14.8331 44.1079 11.7811 41.9652 8.89969C38.6497 4.44967 33.5411 1.53414 28.066 0.971488C27.7277 0.937388 27.2428 0.886239 27.0004 0.852139C26.4816 0.789623 25.3257 0.795306 24.8802 0.857822ZM27.8405 8.86559C30.5865 9.32594 32.9434 10.5706 34.8211 12.5654C36.6142 14.4636 37.6855 16.6801 38.114 19.3854C38.2099 19.9935 38.2155 20.4993 38.2155 26.2906V32.5422H25.9798H13.744L13.7271 26.4895C13.7158 22.1872 13.7271 20.2549 13.7778 19.8173C14.3135 14.6796 17.956 10.4058 22.8785 9.12702C23.5439 8.95084 24.4348 8.79739 25.1058 8.73488C25.6584 8.68373 27.1864 8.75761 27.8405 8.86559Z" fill="url(#paint0_linear_37_26)"></path></g><defs><linearGradient id="paint0_linear_37_26" x1="0.972884" y1="57.6641" x2="70.9028" y2="39.14" gradientUnits="userSpaceOnUse"><stop stop-color="#EE4A9A"></stop><stop offset="1" stop-color="#7A3694"></stop></linearGradient><clipPath id="clip0_37_26"><rect width="51.4241" height="72.7462" fill="white"></rect></clipPath></defs></svg>