<svg xmlns="http://www.w3.org/2000/svg" width="70" height="73" viewBox="0 0 70 73" fill="none"><path d="M68.7464 10.1947C68.6062 9.25551 67.8821 8.48296 66.9032 8.22904L35.5304 0.087126C35.0831 -0.029042 34.6107 -0.029042 34.1631 0.087126L2.79021 8.22904C1.81134 8.48296 1.08722 9.25519 0.94709 10.1947C0.765125 11.4157 -3.38607 40.266 7.26146 54.6182C17.8964 68.9532 33.5852 72.6267 34.2478 72.7762C34.4447 72.8207 34.6454 72.8426 34.8467 72.8426C35.0481 72.8426 35.2488 72.8203 35.4457 72.7762C36.1086 72.6267 51.7974 68.9532 62.432 54.6182C73.0795 40.2663 68.9283 11.416 68.7464 10.1947ZM55.0782 27.0378L33.6787 47.0076C33.1808 47.4722 32.5278 47.7049 31.8751 47.7049C31.2224 47.7049 30.5694 47.4726 30.0714 47.0076L16.8403 34.6604C16.3618 34.2142 16.0931 33.6086 16.0931 32.9773C16.0931 32.346 16.3621 31.7404 16.8403 31.2941L19.4674 28.8425C20.4636 27.9132 22.0789 27.9129 23.0748 28.8425L31.8751 37.0549L48.8438 21.2195C49.322 20.773 49.9709 20.5222 50.6474 20.5222C51.3239 20.5222 51.9729 20.773 52.4511 21.2195L55.0782 23.6711C56.0744 24.6008 56.0744 26.1081 55.0782 27.0378Z" fill="url(#paint0_linear_37_22)"></path><defs><linearGradient id="paint0_linear_37_22" x1="0.236163" y1="15.3668" x2="92.2506" y2="48.9653" gradientUnits="userSpaceOnUse"><stop stop-color="#EE4A9A"></stop><stop offset="1" stop-color="#7A3694"></stop></linearGradient></defs></svg>