<svg xmlns="http://www.w3.org/2000/svg" width="93" height="68" viewBox="0 0 93 68" fill="none"><path d="M71.8636 61.2954C70.1819 61.2954 68.5691 60.6274 67.3799 59.4382C66.1908 58.2491 65.5227 56.6362 65.5227 54.9545C65.5227 53.2728 66.1908 51.66 67.3799 50.4708C68.5691 49.2817 70.1819 48.6136 71.8636 48.6136C73.5453 48.6136 75.1582 49.2817 76.3473 50.4708C77.5365 51.66 78.2045 53.2728 78.2045 54.9545C78.2045 56.6362 77.5365 58.2491 76.3473 59.4382C75.1582 60.6274 73.5453 61.2954 71.8636 61.2954ZM78.2045 23.25L86.49 33.8182H67.6364V23.25M21.1364 61.2954C19.4546 61.2954 17.8418 60.6274 16.6527 59.4382C15.4635 58.2491 14.7955 56.6362 14.7955 54.9545C14.7955 53.2728 15.4635 51.66 16.6527 50.4708C17.8418 49.2817 19.4546 48.6136 21.1364 48.6136C22.8181 48.6136 24.4309 49.2817 25.6201 50.4708C26.8092 51.66 27.4773 53.2728 27.4773 54.9545C27.4773 56.6362 26.8092 58.2491 25.6201 59.4382C24.4309 60.6274 22.8181 61.2954 21.1364 61.2954ZM80.3182 16.9091H67.6364V0H8.45455C3.76227 0 0 3.76227 0 8.45454V54.9545H8.45455C8.45455 58.318 9.79066 61.5436 12.169 63.9219C14.5473 66.3002 17.7729 67.6364 21.1364 67.6364C24.4998 67.6364 27.7255 66.3002 30.1038 63.9219C32.4821 61.5436 33.8182 58.318 33.8182 54.9545H59.1818C59.1818 58.318 60.5179 61.5436 62.8962 63.9219C65.2745 66.3002 68.5002 67.6364 71.8636 67.6364C75.2271 67.6364 78.4527 66.3002 80.831 63.9219C83.2093 61.5436 84.5455 58.318 84.5455 54.9545H93V33.8182L80.3182 16.9091Z" fill="url(#paint0_linear_37_32)"></path><defs><linearGradient id="paint0_linear_37_32" x1="0.315139" y1="14.2685" x2="109.426" y2="71.5252" gradientUnits="userSpaceOnUse"><stop stop-color="#EE4A9A"></stop><stop offset="1" stop-color="#7A3694"></stop></linearGradient></defs></svg>