<svg xmlns="http://www.w3.org/2000/svg" width="76" height="73" viewBox="0 0 76 73" fill="none"><path d="M60.8 64.9999H15.2V72.5999H7.6V64.9999H3.8C2.79218 64.9999 1.82563 64.5996 1.11299 63.8869C0.400356 63.1743 0 62.2077 0 61.1999V4.1999C0 3.19208 0.400356 2.22553 1.11299 1.5129C1.82563 0.800258 2.79218 0.399902 3.8 0.399902H72.2C73.2078 0.399902 74.1744 0.800258 74.887 1.5129C75.5996 2.22553 76 3.19208 76 4.1999V61.1999C76 62.2077 75.5996 63.1743 74.887 63.8869C74.1744 64.5996 73.2078 64.9999 72.2 64.9999H68.4V72.5999H60.8V64.9999ZM34.2 41.7211V53.5999H41.8V41.7211C45.3739 40.7873 48.4857 38.5847 50.5544 35.5245C52.6232 32.4644 53.5074 28.7559 53.0421 25.0915C52.5767 21.4271 50.7935 18.0573 48.0255 15.6114C45.2574 13.1655 41.6938 11.8107 38 11.7999C34.2978 11.7962 30.7215 13.1439 27.9424 15.5899C25.1634 18.0359 23.3725 21.4122 22.9061 25.0849C22.4397 28.7576 23.3297 32.4743 25.4091 35.5373C27.4885 38.6004 30.6144 40.7992 34.2 41.7211ZM38 34.5999C35.9844 34.5999 34.0513 33.7992 32.626 32.3739C31.2007 30.9486 30.4 29.0155 30.4 26.9999C30.4 24.9843 31.2007 23.0512 32.626 21.6259C34.0513 20.2006 35.9844 19.3999 38 19.3999C40.0156 19.3999 41.9487 20.2006 43.374 21.6259C44.7993 23.0512 45.6 24.9843 45.6 26.9999C45.6 29.0155 44.7993 30.9486 43.374 32.3739C41.9487 33.7992 40.0156 34.5999 38 34.5999Z" fill="url(#paint0_linear_37_18)"></path><defs><linearGradient id="paint0_linear_37_18" x1="0.257533" y1="15.6311" x2="98.1743" y2="54.9672" gradientUnits="userSpaceOnUse"><stop stop-color="#EE4A9A"></stop><stop offset="1" stop-color="#7A3694"></stop></linearGradient></defs></svg>